<svg xmlns="http://www.w3.org/2000/svg" width="50" height="46.094" viewBox="0 0 50 46.094"><g transform="translate(0 -20)"><g transform="translate(0 20)"><path d="M50,44.707a10.363,10.363,0,0,0-2.994-7.281,7.727,7.727,0,0,0-10.217-9.535,10.346,10.346,0,0,0-17.756-4.45A8.912,8.912,0,0,0,3.545,31.73,12.008,12.008,0,0,0,1.007,45.063.977.977,0,0,0,2.8,44.278a10.055,10.055,0,0,1,2.54-11.552.977.977,0,0,0,.252-1.111A6.958,6.958,0,0,1,17.818,25.1a10.288,10.288,0,0,0-1.436,5.255v7.5l-3.406,3.406V32.991a.977.977,0,1,0-1.953,0V37.73L9.139,35.846a.977.977,0,0,0-1.381,1.381l3.265,3.265v9.749a9.969,9.969,0,0,1-2.517-.576A.977.977,0,0,0,7.827,51.5a11.923,11.923,0,0,0,3.2.706v5.943A5.54,5.54,0,0,0,3.709,65.53a.977.977,0,0,0,.885.563H45.065a.977.977,0,0,0,0-1.953h-4.44V55.012A10.365,10.365,0,0,0,50,44.707ZM39.648,29.3a5.775,5.775,0,0,1,5.319,8.015.977.977,0,0,0,.252,1.111,8.4,8.4,0,0,1-4.594,14.625V49.594l3.4-3.4a.977.977,0,0,0-1.381-1.381l-2.018,2.018V40.153a.977.977,0,1,0-1.953,0v3.678l-1.587-1.587V30.352c0-.151,0-.3-.01-.45a5.759,5.759,0,0,1,2.573-.6ZM37.02,44.941l1.652,1.652v6.454a8.426,8.426,0,0,1-4.554-2.022,10.324,10.324,0,0,0,2.9-6.084ZM26.734,21.953a8.408,8.408,0,0,1,8.4,8.4V43.778a8.409,8.409,0,0,1-7.422,8.34V48.665l3.4-3.4a.977.977,0,0,0-1.381-1.381L27.71,45.9V39.225a.977.977,0,0,0-1.953,0V42.9L24.4,41.549a.977.977,0,0,0-1.381,1.381l2.734,2.734v6.453a8.409,8.409,0,0,1-7.422-8.34V30.352A8.408,8.408,0,0,1,26.734,21.953Zm-2.585,35.7a5.556,5.556,0,0,0-1.727.276,6.2,6.2,0,0,0-9.446-1.454V52.2a11.82,11.82,0,0,0,5.673-1.969,10.346,10.346,0,0,0,7.108,3.849v3.807a5.52,5.52,0,0,0-1.608-.239ZM16.382,40.614v3.164A10.288,10.288,0,0,0,17.577,48.6a9.89,9.89,0,0,1-4.6,1.641V44.021ZM5.144,63.19a3.585,3.585,0,0,1,6.136-2.518.977.977,0,0,0,1.649-.476,4.284,4.284,0,0,1,4.16-3.339,4.24,4.24,0,0,1,3.961,2.692.977.977,0,0,0,1.378.5,3.587,3.587,0,0,1,5.18,4.1H5.271a3.565,3.565,0,0,1-.128-.951Zm24.462.95a5.53,5.53,0,0,0-1.895-5.188v-4.87a10.288,10.288,0,0,0,4.9-1.788,10.382,10.382,0,0,0,6.062,2.716v9.129Z" transform="translate(0 -20)" fill="#cbbb46"/><path d="M37.087,301.057a.976.976,0,1,0-.69.286A.984.984,0,0,0,37.087,301.057Z" transform="translate(-31.961 -272.106)" fill="#cbbb46"/></g></g></svg>