<svg xmlns="http://www.w3.org/2000/svg" width="50" height="50" viewBox="0 0 50 50"><path d="M12.451,31.5H8.545A8.555,8.555,0,0,0,0,40.045V72.271a3.666,3.666,0,0,0,3.662,3.662H17.334A3.666,3.666,0,0,0,21,72.271V40.045A8.555,8.555,0,0,0,12.451,31.5ZM7.744,33.011a7.285,7.285,0,0,1-6.233,6.233A7.091,7.091,0,0,1,7.744,33.011ZM1.465,52.154a8.978,8.978,0,0,1,.814-3.745L4.2,51.15a2.18,2.18,0,0,0-.3,1.1V62.994a2.186,2.186,0,0,0,.209.935L1.881,67.11a2.185,2.185,0,0,1-.416-1.284ZM6.1,65.191h8.789a2.181,2.181,0,0,0,.937-.21l2.083,2.964a2.19,2.19,0,0,1-.578.078H3.662a2.19,2.19,0,0,1-.578-.078l2.083-2.964A2.181,2.181,0,0,0,6.1,65.191Zm-.732-2.2V52.252A.733.733,0,0,1,6.1,51.52h8.789a.733.733,0,0,1,.732.732V62.994a.733.733,0,0,1-.732.732H6.1A.733.733,0,0,1,5.371,62.994Zm10.3-12.8a2.188,2.188,0,0,0-.778-.143H6.1a2.188,2.188,0,0,0-.778.143L3.082,47a9.024,9.024,0,0,1,14.833,0Zm3.86,22.074a2.2,2.2,0,0,1-2.2,2.2H3.662a2.2,2.2,0,0,1-2.2-2.2V68.754a3.643,3.643,0,0,0,2.2.734H17.334a3.643,3.643,0,0,0,2.2-.734Zm0-6.445a2.183,2.183,0,0,1-.416,1.284L16.88,63.929a2.186,2.186,0,0,0,.209-.935V52.252a2.18,2.18,0,0,0-.3-1.1l1.926-2.74a8.978,8.978,0,0,1,.814,3.745Zm0-19.015a10.492,10.492,0,0,0-18.066,0V40.724a8.747,8.747,0,0,0,7.76-7.759h2.839a8.751,8.751,0,0,0,7.467,7.723Zm-5.979-13.76A7.094,7.094,0,0,1,19.479,39.2,7.355,7.355,0,0,1,13.552,33.051Zm0,0" transform="translate(0 -28.424)" fill="#cbbb46"/><path d="M309.451,31.5h-3.906A8.555,8.555,0,0,0,297,40.045V72.271a3.666,3.666,0,0,0,3.662,3.662h13.672A3.666,3.666,0,0,0,318,72.271V40.045A8.555,8.555,0,0,0,309.451,31.5Zm7.027,7.7a7.355,7.355,0,0,1-5.927-6.144A7.094,7.094,0,0,1,316.479,39.2Zm-11.734-6.184a7.284,7.284,0,0,1-6.233,6.233A7.091,7.091,0,0,1,304.744,33.011Zm-6.279,19.143a8.979,8.979,0,0,1,.814-3.745l1.926,2.74a2.18,2.18,0,0,0-.3,1.1V62.994a2.186,2.186,0,0,0,.209.935l-2.235,3.181a2.185,2.185,0,0,1-.416-1.284ZM303.1,65.191h8.789a2.181,2.181,0,0,0,.937-.21l2.083,2.964a2.191,2.191,0,0,1-.578.078H300.662a2.191,2.191,0,0,1-.578-.078l2.083-2.964A2.181,2.181,0,0,0,303.1,65.191Zm-.732-2.2V52.252a.733.733,0,0,1,.732-.732h8.789a.733.733,0,0,1,.732.732V62.994a.733.733,0,0,1-.732.732H303.1A.733.733,0,0,1,302.371,62.994Zm10.3-12.8a2.188,2.188,0,0,0-.778-.143H303.1a2.188,2.188,0,0,0-.778.143L300.082,47a9.024,9.024,0,0,1,14.833,0Zm3.86,22.074a2.2,2.2,0,0,1-2.2,2.2H300.662a2.2,2.2,0,0,1-2.2-2.2V68.754a3.643,3.643,0,0,0,2.2.734h13.672a3.643,3.643,0,0,0,2.2-.734Zm0-6.445a2.183,2.183,0,0,1-.416,1.284l-2.235-3.181a2.186,2.186,0,0,0,.209-.935V52.252a2.18,2.18,0,0,0-.3-1.1l1.926-2.74a8.979,8.979,0,0,1,.814,3.745Zm0-19.015a10.492,10.492,0,0,0-18.066,0V40.724a8.747,8.747,0,0,0,7.76-7.759h2.839a8.751,8.751,0,0,0,7.467,7.723Zm0,0" transform="translate(-267.996 -28.424)" fill="#cbbb46"/><path d="M249,497h1.465v1.465H249Zm0,0" transform="translate(-224.684 -448.465)" fill="#cbbb46"/><path d="M249,30h1.465V74.141H249Zm0,0" transform="translate(-224.684 -27.07)" fill="#cbbb46"/><path d="M249,0h1.465V1.465H249Zm0,0" transform="translate(-224.684)" fill="#cbbb46"/><path d="M29.5,441.5h1.465v1.465H29.5Zm0,0" transform="translate(-26.619 -398.385)" fill="#cbbb46"/><path d="M170.5,441.5h1.465v1.465H170.5Zm0,0" transform="translate(-153.85 -398.385)" fill="#cbbb46"/><path d="M328.5,441.5h1.465v1.465H328.5Zm0,0" transform="translate(-296.42 -398.385)" fill="#cbbb46"/><path d="M469.5,441.5h1.465v1.465H469.5Zm0,0" transform="translate(-423.65 -398.385)" fill="#cbbb46"/></svg>