<svg xmlns="http://www.w3.org/2000/svg" xmlns:xlink="http://www.w3.org/1999/xlink" width="30" height="30" viewBox="0 0 30 30"><defs><clipPath id="a"><path d="M0-11.619H1.961V-6H4.168v-5.619H6.094l.572-1.788h-2.5L4.16-14.848c0-.59.152-.933.93-.933H6.6v-2.093l-.207-.03a7.924,7.924,0,0,0-1.3-.1,2.991,2.991,0,0,0-3.136,3.047l.011,1.547H0Z" transform="translate(0 18)" fill="#fff" clip-rule="evenodd"/></clipPath><clipPath id="b"><path d="M-1016,404H-56V-56h-960Z" transform="translate(1016 56)" fill="#fff"/></clipPath></defs><circle cx="15" cy="15" r="15" fill="#cbbb46"/><g transform="translate(11.667 9)" clip-path="url(#a)"><g transform="translate(-677.333 -25.333)" clip-path="url(#b)"><path d="M-5-23H8.333V-4.333H-5Z" transform="translate(679 45)" fill="#fff"/></g></g></svg>