<svg xmlns="http://www.w3.org/2000/svg" width="50" height="50" viewBox="0 0 50 50"><g transform="translate(0)"><g transform="translate(0 0)"><g transform="translate(0 0)"><path d="M49.885.778A.779.779,0,0,0,49.1,0L.778.115A.78.78,0,0,0,0,.9L.115,49.222A.779.779,0,0,0,.9,50l48.326-.115A.78.78,0,0,0,50,49.1ZM1.672,48.44,1.561,1.672l46.768-.111.111,46.768Z" transform="translate(0 0)" fill="#cbbb46"/></g></g><g transform="translate(6.251 6.25)"><path d="M101.609,79.74l-.035-14.81a.779.779,0,0,0-.781-.778l-17.928.042-17.928.043a.779.779,0,0,0-.778.782l.035,14.81.028,11.692.022,9.354a.779.779,0,0,0,.781.778l11.692-.028a.78.78,0,0,0,.778-.781l0-1.559,12.471-.03A2.341,2.341,0,0,0,92.3,96.91l-.007-3.118,8.573-.021a.78.78,0,0,0,.778-.781ZM92.222,65.731l.015,6.236a.779.779,0,1,0,1.559,0l-.015-6.236,6.236-.015.031,13.251-6.236.015-.005-2.338a.779.779,0,0,0-1.559,0l.005,2.338-1.559,0L86.018,79,83.679,79l-.031-13.251ZM89.93,85.144A3.9,3.9,0,0,1,86.8,81.333l0-.779,2.06,0,1.058,0ZM82.12,79.006,79,79.013l0-.779a3.9,3.9,0,0,1,3.108-3.826ZM65.8,100.091,65.783,92.3l3.118-.007a.779.779,0,1,0,0-1.559l-3.118.008L65.756,80.6l2.378-.005,3.078-.007,0,.779A5.46,5.46,0,0,0,75.9,86.755l.019,8.123.009,3.632,0,1.559Zm6.969-19.5,3.118-.007.011,4.6a3.9,3.9,0,0,1-3.127-3.812ZM65.75,79.046,65.719,65.8l6.237-.016.007,3.118a.779.779,0,1,0,1.559,0l-.008-3.118,8.574-.02.016,7.077a5.461,5.461,0,0,0-4.664,5.4l0,.779ZM89.959,97.694l-12.471.03,0-1.094-.006-2.8L90.73,93.8l.007,3.118A.78.78,0,0,1,89.959,97.694ZM77.475,92.268l0-1.907-.023-9.785,7.795-.019,0,.779a5.462,5.462,0,0,0,5.469,5.443A.78.78,0,0,0,91.49,86l-.013-5.456,1.559,0,7.015-.016.028,11.692Z" transform="translate(-64.16 -64.152)" fill="#cbbb46"/></g><g transform="translate(35.948 37.433)"><path d="M376.747,386.526a2.341,2.341,0,0,0-2.344-2.334l-3.118.008a2.341,2.341,0,0,0-2.333,2.344l.007,3.118a.779.779,0,0,0,.781.778l6.236-.015a.78.78,0,0,0,.778-.781Zm-6.23,2.352-.005-2.338a.78.78,0,0,1,.778-.781l3.118-.008a.78.78,0,0,1,.781.778l.005,2.338Z" transform="translate(-368.952 -384.192)" fill="#cbbb46"/></g></g></svg>