<svg xmlns="http://www.w3.org/2000/svg" xmlns:xlink="http://www.w3.org/1999/xlink" width="30" height="30" viewBox="0 0 30 30"><defs><clipPath id="a"><path d="M95.888-7.588a2.437,2.437,0,0,1-2.434,2.434H87.629a2.437,2.437,0,0,1-2.434-2.434v-5.825a2.437,2.437,0,0,1,2.434-2.434h5.825a2.437,2.437,0,0,1,2.434,2.434v5.825ZM93.454-17H87.629a3.592,3.592,0,0,0-3.587,3.588v5.825A3.592,3.592,0,0,0,87.629-4h5.825a3.592,3.592,0,0,0,3.588-3.588v-5.825A3.592,3.592,0,0,0,93.454-17Z" transform="translate(-84.041 17)" fill="#fff" clip-rule="evenodd"/></clipPath><clipPath id="b"><path d="M-1016,471.68H92.809V-56H-1016Z" transform="translate(1016 56)" fill="#fff"/></clipPath><clipPath id="c"><path d="M91.482-7.335a2.2,2.2,0,0,1-2.2-2.2,2.2,2.2,0,0,1,2.2-2.2,2.2,2.2,0,0,1,2.2,2.2,2.2,2.2,0,0,1-2.2,2.2m0-5.546a3.354,3.354,0,0,0-3.35,3.35,3.353,3.353,0,0,0,3.35,3.35,3.353,3.353,0,0,0,3.35-3.35,3.354,3.354,0,0,0-3.35-3.35" transform="translate(-88.133 12.881)" fill="#fff" clip-rule="evenodd"/></clipPath><clipPath id="e"><path d="M96.763-14.159a.849.849,0,0,0-.6.248.85.85,0,0,0-.248.6.853.853,0,0,0,.248.6.852.852,0,0,0,.6.248.854.854,0,0,0,.6-.248.852.852,0,0,0,.248-.6.849.849,0,0,0-.248-.6.85.85,0,0,0-.6-.248" transform="translate(-95.917 14.159)" fill="#fff" clip-rule="evenodd"/></clipPath></defs><g transform="translate(0.396)"><path d="M15,0A15,15,0,1,1,0,15,15,15,0,0,1,15,0Z" transform="translate(-0.396)" fill="#cbbb46"/><g transform="translate(8.104 8)"><g clip-path="url(#a)"><g transform="translate(-847.039 -29.825)" clip-path="url(#b)"><path d="M79.041-22h20.7V-1.353h-20.7Z" transform="translate(764.147 48.002)" fill="#fff"/></g></g><g transform="translate(3.15 3.15)" clip-path="url(#c)"><g transform="translate(-850.189 -32.976)" clip-path="url(#b)"><path d="M83.133-17.881h14.4V-3.534h-14.4Z" transform="translate(763.206 47.033)" fill="#fff"/></g></g><g transform="translate(9.144 2.172)" clip-path="url(#e)"><g transform="translate(-856.183 -31.998)" clip-path="url(#b)"><path d="M90.917-19.159h9.392V-9.82H90.917Z" transform="translate(761.416 47.333)" fill="#fff"/></g></g></g></g></svg>