<svg xmlns="http://www.w3.org/2000/svg" width="30" height="30" viewBox="0 0 30 30"><g transform="translate(-0.106)"><path d="M15,0A15,15,0,1,1,0,15,15,15,0,0,1,15,0Z" transform="translate(0.106)" fill="#cbbb46"/><g transform="translate(9 10)"><path d="M13,49.25a5.557,5.557,0,0,1-1.536.421A2.65,2.65,0,0,0,12.637,48.2a5.326,5.326,0,0,1-1.69.645,2.665,2.665,0,0,0-4.61,1.822,2.744,2.744,0,0,0,.062.608A7.544,7.544,0,0,1,.905,48.486a2.666,2.666,0,0,0,.819,3.562,2.632,2.632,0,0,1-1.2-.328v.029a2.677,2.677,0,0,0,2.135,2.619,2.66,2.66,0,0,1-.7.088,2.356,2.356,0,0,1-.5-.045,2.69,2.69,0,0,0,2.49,1.857A5.355,5.355,0,0,1,.638,57.4,4.992,4.992,0,0,1,0,57.367a7.5,7.5,0,0,0,4.089,1.2,7.533,7.533,0,0,0,7.585-7.584c0-.118,0-.232-.01-.345A5.317,5.317,0,0,0,13,49.25Z" transform="translate(0 -48)" fill="#fff"/></g></g></svg>