<svg xmlns="http://www.w3.org/2000/svg" width="90" height="66.919" viewBox="0 0 90 66.919"><g transform="translate(-857.898 -68.889)"><path d="M1214.451,94.312a5.564,5.564,0,0,0,3.1,4.49,7.731,7.731,0,0,0,4.031.49,4.986,4.986,0,0,0,4.739-3.949,28.326,28.326,0,0,0,.6-7.379c0-.355-.222-.337-.456-.336-1.019,0-2.038,0-3.057.005a3.392,3.392,0,0,0-.44.064c0,.241,0,.449,0,.656-.006,1.212.033,2.427-.033,3.636a13.6,13.6,0,0,1-.38,2.592,1.993,1.993,0,0,1-2.139,1.37,1.732,1.732,0,0,1-1.885-1.29,9.9,9.9,0,0,1-.441-2.581q-.062-7.826-.011-15.652a11,11,0,0,1,.334-2.391,2.2,2.2,0,0,1,2.374-1.737c.738.072,1.813.385,2.08,2.2a19.388,19.388,0,0,1,.091,2.472c.018,1.018,0,2.036,0,3.157,1.274,0,2.481.009,3.688-.018.092,0,.253-.256.255-.4.014-.983.053-1.972-.029-2.95a26.812,26.812,0,0,0-.509-3.849,4.6,4.6,0,0,0-3.767-3.858,12.637,12.637,0,0,0-2.3-.169,5.392,5.392,0,0,0-5.564,4.028,17.429,17.429,0,0,0-.71,5.564c-.042,3.689-.053,7.379.007,11.067A33.316,33.316,0,0,0,1214.451,94.312Z" transform="translate(-307.997)" fill="#cbbb46"/><path d="M1099.608,101.023c.093,0,.243-.216.263-.347.271-1.785.525-3.574.782-5.361q.93-6.455,1.86-12.911.567-3.931,1.136-7.862c.152-1.055.294-2.112.455-3.27-1.2,0-2.3-.015-3.4.022-.123,0-.318.3-.34.474-.3,2.455-.592,4.911-.855,7.371-.478,4.465-.936,8.933-1.4,13.4-.065.628-.109,1.259-.19,1.885-.015.118-.157.22-.241.329a1.236,1.236,0,0,1-.25-.326,2.82,2.82,0,0,1-.082-.571c-.231-2.163-.432-4.33-.7-6.489-.455-3.726-.95-7.448-1.426-11.171-.187-1.461-.358-2.925-.565-4.383-.028-.194-.218-.517-.343-.521-1.118-.041-2.239-.024-3.442-.024l4.232,29.771C1096.629,101.038,1098.119,101.045,1099.608,101.023Z" transform="translate(-201.508 -2.055)" fill="#cbbb46"/><path d="M1292.3,232.414c.046-.58.106-1.168.136-1.757.031-.614.064-1.23.038-1.843-.019-.44.117-.63.567-.679a3.53,3.53,0,0,0,2.088-.906,2.349,2.349,0,0,0,.817-1.6,5.314,5.314,0,0,0-2.272.549,3.32,3.32,0,0,0-1.52,1.919c-.7-1.886-2.09-2.375-3.8-2.459a2.523,2.523,0,0,0,.828,1.585,3.667,3.667,0,0,0,2.141.918c.366.04.516.174.491.565-.043.665-.012,1.335-.047,2-.031.587-.109,1.171-.183,1.919a4.214,4.214,0,0,0-3.288-1.9,2.156,2.156,0,0,0,.7,1.712,3.929,3.929,0,0,0,2.084,1.054c.308.061.423.188.362.5-.279,1.428-.548,2.857-.827,4.285a1.723,1.723,0,0,1-.167.34,4.1,4.1,0,0,0-3.087-2.353,2.49,2.49,0,0,0,.654,1.912,9.509,9.509,0,0,0,1.818,1.206c.314.168.425.288.308.626-.205.6-.371,1.207-.574,1.8-.188.555-.4,1.1-.661,1.8a4.508,4.508,0,0,0-2.342-2.669,1.338,1.338,0,0,0-.127.242,2.092,2.092,0,0,0-.037.312,3.189,3.189,0,0,0,1.607,2.945c.354.25.4.445.212.808-.426.827-.809,1.675-1.229,2.5-.248.49-.534.96-.8,1.439a4.838,4.838,0,0,0-2-2.935,2.56,2.56,0,0,0-.277,1.621,4.109,4.109,0,0,0,1.267,2.2c.116.114.226.407.163.5-.711,1.082-1.456,2.142-2.191,3.208l-.145-.031a4.438,4.438,0,0,0-1.519-3.151,5.959,5.959,0,0,0-.336.712,3.147,3.147,0,0,0,.412,2.62c.2.335.564.7.526,1.007-.041.338-.449.642-.719.941-.5.551-1.014,1.086-1.522,1.628a4.633,4.633,0,0,0-1.289-3.231,4.788,4.788,0,0,0-.574,1.43,3.368,3.368,0,0,0,.6,2.4.478.478,0,0,1-.112.749c-.7.583-1.378,1.2-2.072,1.79-.231.2-.482.37-.841.643a4.379,4.379,0,0,0-.866-3.51,6.758,6.758,0,0,0-.495.753,3.315,3.315,0,0,0,.168,3.037.523.523,0,0,1-.227.811c-.741.47-1.462.971-2.2,1.449-.269.175-.557.321-.979.562a4.169,4.169,0,0,0-.194-3.953c-1.478,1.355-1.183,2.849-.581,4.456l-3.968,1.912a16.864,16.864,0,0,0,.3-2.044,3.177,3.177,0,0,0-.611-1.964c-1.45,1.294-1.151,2.795-.583,4.381l-3.8,1.278a4.045,4.045,0,0,0-.111-4.027,4.215,4.215,0,0,0-.913,1.242,4.715,4.715,0,0,0,2.659,5.577,6.216,6.216,0,0,0,1.563.125l.094-.221a11.239,11.239,0,0,0-.987-1.26,12.472,12.472,0,0,0-1.341-1.006c1-.362,1.985-.728,2.979-1.054.115-.038.327.124.453.239a13.547,13.547,0,0,0,1.135,1.086,2.541,2.541,0,0,0,2.495.326,4.6,4.6,0,0,0-2.59-2.231c1.18-.6,2.266-1.157,3.367-1.687.093-.045.308.078.419.176a15.311,15.311,0,0,0,1.272,1.166,2.452,2.452,0,0,0,2.361.256,4.416,4.416,0,0,0-2.765-2.283c1.1-.744,2.128-1.446,3.172-2.118.087-.056.327.061.46.152a14.425,14.425,0,0,0,1.711,1.192,2.412,2.412,0,0,0,2.225-.108,4.107,4.107,0,0,0-3.429-1.874,1.423,1.423,0,0,1,.138-.188c1.041-.889,2.09-1.769,3.121-2.669.253-.22.371-.055.574.066a11.624,11.624,0,0,0,2.011,1.079,1.984,1.984,0,0,0,1.914-.362,4.2,4.2,0,0,0-3.6-1.575c.927-1.027,1.763-1.97,2.627-2.886a.583.583,0,0,1,.513-.028,12.584,12.584,0,0,0,1.559.733,2.476,2.476,0,0,0,2.446-.5,4.134,4.134,0,0,0-3.722-1.143l2.729-3.847c2.238.943,3.484.9,4.276-.167a4.138,4.138,0,0,0-3.753-.661l2.485-4.867c1.531.481,3.037.741,4.288-.8a4.077,4.077,0,0,0-3.925-.045c.491-1.5.939-2.9,1.417-4.286a.585.585,0,0,1,.427-.254,14.7,14.7,0,0,0,1.566-.128,2.556,2.556,0,0,0,1.958-1.692,4.373,4.373,0,0,0-3.5.6c.286-1.608.544-3.108.834-4.6.023-.117.255-.239.41-.276.459-.109.946-.12,1.388-.272a2.691,2.691,0,0,0,1.9-2.1,11.792,11.792,0,0,0-1.87.306A11.988,11.988,0,0,0,1292.3,232.414Z" transform="translate(-348.051 -135.574)" fill="#cbbb46"/><path d="M892.287,264.473a3.985,3.985,0,0,0,.084,3.914l-.1.085-3.67-1.239a16.758,16.758,0,0,0,.342-2.419,2.26,2.26,0,0,0-1.117-1.989,4.191,4.191,0,0,0-.147,3.973c-1.323-.568-2.577-1.178-3.816-1.819-.092-.048-.119-.328-.088-.482.08-.394.241-.772.314-1.166a2.7,2.7,0,0,0-1.168-2.848,10.266,10.266,0,0,0-.466,1.876,11.566,11.566,0,0,0,.228,2.03c-1.094-.734-2.172-1.446-3.229-2.188-.089-.062-.089-.336-.046-.487.134-.47.358-.918.456-1.394a2.333,2.333,0,0,0-.847-2.428,4.778,4.778,0,0,0-.85,3.342c-.995-.773-1.909-1.584-2.843-2.372-.3-.25-.242-.442-.092-.761a7.073,7.073,0,0,0,.618-1.77,2.269,2.269,0,0,0-.674-2.052,4.836,4.836,0,0,0-1.166,3.248c-.8-.8-1.538-1.61-2.249-2.445-.075-.088-.022-.347.049-.488a11.235,11.235,0,0,0,.85-1.616,2.409,2.409,0,0,0-.368-2.331,4.915,4.915,0,0,0-1.556,3.127c-.77-.989-1.443-1.989-2.143-2.971-.238-.334-.119-.515.1-.807a7.958,7.958,0,0,0,1.117-1.81,2.029,2.029,0,0,0-.21-1.894,4.338,4.338,0,0,0-1.876,2.9c-.076-.042-.121-.051-.134-.076-.7-1.355-1.4-2.707-2.071-4.076-.054-.109.085-.37.2-.495a16.062,16.062,0,0,0,1.186-1.179,2.629,2.629,0,0,0,.385-2.425,4.4,4.4,0,0,0-2.338,2.565l-.137-.034-1.256-3.739A20.061,20.061,0,0,0,865.6,238.4a2.166,2.166,0,0,0,.784-2.115,4.492,4.492,0,0,0-3.083,2.275c-.346-1.476-.6-2.923-.886-4.364-.1-.5.09-.667.55-.764a3.223,3.223,0,0,0,2.194-1.416,8.076,8.076,0,0,0,.511-1.293,4.611,4.611,0,0,0-3.432,1.764c-.123-1.341-.187-2.652-.216-3.963,0-.109.212-.277.357-.327.463-.157.962-.222,1.408-.413a2.707,2.707,0,0,0,1.693-2.146c-1.729.084-3.123.589-3.825,2.465-.69-1.895-2.086-2.374-3.758-2.459a2.8,2.8,0,0,0,2.28,2.381c.366.1.872.085,1.063.324s.1.736.115,1.12c.05.992.1,1.983.149,3.1a4.28,4.28,0,0,0-3.555-1.2,6.344,6.344,0,0,0,.431.906,3.386,3.386,0,0,0,2.787,1.343c.371.021.515.145.567.515.128.9.3,1.8.462,2.7.1.535.211,1.067.343,1.731a4.323,4.323,0,0,0-3.55-.643,2.563,2.563,0,0,0,1.178,1.388,3.751,3.751,0,0,0,2.192.42.555.555,0,0,1,.674.466c.386,1.22.819,2.426,1.23,3.638.04.117.055.243.1.463a4.081,4.081,0,0,0-3.9.009,2.491,2.491,0,0,0,1.645,1.123,3.886,3.886,0,0,0,2.224-.2c.322-.119.484-.048.641.279.583,1.218,1.2,2.418,1.816,3.623.132.26.282.511.491.887a4.281,4.281,0,0,0-3.958.748,9.27,9.27,0,0,0,1.3.659,3.461,3.461,0,0,0,2.733-.434c.323-.173.476-.113.672.181.622.935,1.274,1.85,1.918,2.771.153.219.317.429.554.749a4.092,4.092,0,0,0-3.69,1.072l-.034.213a7.948,7.948,0,0,0,1.257.412,3.4,3.4,0,0,0,2.613-.749c.338-.252.5-.2.762.1.712.823,1.468,1.607,2.2,2.409.084.092.153.2.254.329-1.7.071-2.988.691-3.479,1.641a2.818,2.818,0,0,0,3.193-.239c.342-.235.7-.7,1.006-.667.36.042.667.516,1,.8.808.687,1.618,1.371,2.512,2.129a4.135,4.135,0,0,0-3.488,1.924,7.864,7.864,0,0,0,.95.238,3.212,3.212,0,0,0,2.614-1c.684-.632.687-.625,1.47-.1.827.551,1.658,1.1,2.581,1.709a4.369,4.369,0,0,0-2.818,2.312,6.688,6.688,0,0,0,.786.131,3.271,3.271,0,0,0,2.788-1.525c.207-.27.368-.347.691-.165.626.353,1.281.654,1.925.975.394.2.789.389,1.293.638a4.529,4.529,0,0,0-2.646,2.253,2.71,2.71,0,0,0,3.143-.915c.64-.849,1.216-.773,2.013-.4.606.283,1.261.46,2.044.737a4.675,4.675,0,0,0-2.444,2.3A3.625,3.625,0,0,0,893.081,269C893.867,266.93,893.571,265.152,892.287,264.473Z" transform="translate(0 -135.583)" fill="#cbbb46"/><path d="M1021.869,317.333c.1-.613.1-.615-.669-.615H958.334a1.352,1.352,0,0,0-.469.021c-.112.043-.255.2-.25.3a.468.468,0,0,0,.258.308,1.057,1.057,0,0,0,.416.018q31.485,0,62.97,0C1021.466,317.36,1021.672,317.342,1021.869,317.333Z" transform="translate(-86.25 -214.35)" fill="#cbbb46"/><path d="M896.365,81.835c-.33.936-.625,1.885-.933,2.829l.109.058c.821-.6,1.655-1.175,2.458-1.794a.6.6,0,0,1,.867.01c.66.52,1.353,1,2.034,1.494.129.093.268.173.4.259a22.676,22.676,0,0,0-.853-2.967.541.541,0,0,1,.238-.742c.753-.514,1.482-1.062,2.217-1.6a4.751,4.751,0,0,0,.355-.332c-1.148,0-2.18-.012-3.211.007a.518.518,0,0,1-.6-.433c-.306-1-.65-1.983-.98-2.973a19.971,19.971,0,0,0-.975,2.724c-.139.5-.355.716-.906.689-.973-.048-1.949-.014-2.924-.014a20.593,20.593,0,0,0,2.417,1.868A.655.655,0,0,1,896.365,81.835Z" transform="translate(-30.94 -5.848)" fill="#cbbb46"/><path d="M1430.443,80.791c-.349.947-.628,1.92-.985,3.036.855-.62,1.584-1.152,2.318-1.679s.737-.523,1.453,0c.7.513,1.408,1.018,2.112,1.526l.11-.067c-.05-.193-.09-.389-.151-.578-.192-.6-.4-1.2-.589-1.8-.321-1-.316-.995.557-1.619.675-.482,1.342-.976,2.013-1.465a14.063,14.063,0,0,0-1.925-.107c-.556-.011-1.257.147-1.625-.128s-.42-1-.6-1.526c-.2-.584-.392-1.171-.636-1.9l-.849,2.607c-.307.945-.307.947-1.315.95-.849,0-1.7,0-2.545,0a19.662,19.662,0,0,0,2.341,1.847A.653.653,0,0,1,1430.443,80.791Z" transform="translate(-492.92 -4.841)" fill="#cbbb46"/><path d="M1196.5,410.981c-.432.018-.311.48-.311.774q-.012,6.029-.006,12.058a1.281,1.281,0,0,0,.06.463.349.349,0,0,0,.258.2.441.441,0,0,0,.317-.2,1.136,1.136,0,0,0,.048-.464q0-3.028,0-6.056c0-2,.005-4-.005-6C1196.859,411.445,1197,410.959,1196.5,410.981Z" transform="translate(-292.588 -295.89)" fill="#cbbb46"/><path d="M1129.989,411.287c-.033.032-.034.1-.048.148l-2.2,8.217-.853,3.183c.068.085.154.291.261.3a.587.587,0,0,0,.4-.231,1.026,1.026,0,0,0,.13-.395q1.045-3.88,2.088-7.761c.295-1.1.6-2.2.859-3.3.039-.165-.113-.375-.177-.564C1130.29,411.017,1130.135,411.147,1129.989,411.287Z" transform="translate(-232.658 -295.807)" fill="#cbbb46"/><path d="M1246.2,423.245c.335-.052.238-.338.171-.589q-1.233-4.6-2.455-9.2c-.19-.711-.371-1.425-.594-2.125a.615.615,0,0,0-.4-.313c-.064-.016-.194.22-.255.3.028.181.034.27.057.354,1,3.725,2,7.451,3.017,11.171C1245.787,423.013,1246.064,423.265,1246.2,423.245Z" transform="translate(-332.802 -295.923)" fill="#cbbb46"/><path d="M1220.778,419.883c.08-.2.25-.41.228-.6-.239-2.068-.506-4.134-.77-6.2-.08-.625-.158-1.251-.278-1.868-.028-.146-.224-.259-.343-.387-.093.161-.195.318-.274.486-.026.055.005.138.01.208l-.017,0q.118.884.236,1.768c.267,2.03.526,4.062.816,6.088C1220.412,419.565,1220.642,419.717,1220.778,419.883Z" transform="translate(-312.619 -295.762)" fill="#cbbb46"/><path d="M1166.916,410.99c-.122,0-.332.279-.359.453-.191,1.23-.349,2.465-.511,3.7-.191,1.461-.375,2.922-.579,4.521l.281.374c.144-.189.387-.363.416-.568.366-2.64.7-5.285,1.047-7.928C1167.246,411.275,1167.233,410.994,1166.916,410.99Z" transform="translate(-266.03 -295.899)" fill="#cbbb46"/><path d="M1488.146,188.138c-1.042,1.552-1.037,3.47.19,4.4C1489.454,190.964,1489.332,188.833,1488.146,188.138Z" transform="translate(-544.475 -103.144)" fill="#cbbb46"/><path d="M882.855,188.076c-1.2.8-1.248,2.781-.193,4.441A3.3,3.3,0,0,0,882.855,188.076Z" transform="translate(-20.768 -103.091)" fill="#cbbb46"/><path d="M1268.519,410.5l-.187.011c-.044.2-.172.423-.117.589.175.53.418,1.037.633,1.554.61,1.471,1.21,2.945,1.842,4.406.069.16.318.242.483.36.05-.179.192-.394.138-.53-.807-2.013-1.638-4.017-2.474-6.019A1.624,1.624,0,0,0,1268.519,410.5Z" transform="translate(-354.89 -295.474)" fill="#cbbb46"/><path d="M1106.856,417.647c.062-.047.081-.152.114-.232q1.147-2.764,2.291-5.528c.067-.161.116-.329.193-.549-.073-.088-.141-.244-.241-.27a.48.48,0,0,0-.357.124.823.823,0,0,0-.172.319q-.745,1.794-1.486,3.59c-.315.76-.647,1.512-.932,2.283-.052.139.09.349.142.526A4.1,4.1,0,0,0,1106.856,417.647Z" transform="translate(-214.816 -295.961)" fill="#cbbb46"/><path d="M1098.5,466.8a.389.389,0,0,0-.35.108c-.247.516-.475,1.043-.671,1.581-.032.089.1.293.2.356a.369.369,0,0,0,.351-.1c.259-.53.483-1.077.739-1.664C1098.679,466.977,1098.606,466.831,1098.5,466.8Z" transform="translate(-207.221 -344.168)" fill="#cbbb46"/><path d="M1162.655,483.623c-.105.458-.155.93-.245,1.53l.3.354c.138-.142.356-.264.4-.429a6.858,6.858,0,0,0,.189-1.347c.006-.132-.188-.272-.29-.409C1162.882,483.421,1162.682,483.5,1162.655,483.623Z" transform="translate(-263.385 -358.462)" fill="#cbbb46"/><path d="M1291.664,468.59a.388.388,0,0,0,.354.11c.1-.032.171-.187.26-.3-.255-.582-.483-1.13-.743-1.662a.374.374,0,0,0-.35-.1c-.1.039-.23.234-.2.308C1291.186,467.507,1291.413,468.055,1291.664,468.59Z" transform="translate(-374.592 -344.026)" fill="#cbbb46"/><path d="M1228.854,483.4c-.15.032-.244.327-.3.405.086.6.124,1.04.224,1.465.028.12.237.2.363.3.09-.128.26-.258.257-.385a9.951,9.951,0,0,0-.128-1.255C1229.235,483.671,1229.226,483.316,1228.854,483.4Z" transform="translate(-320.599 -358.517)" fill="#cbbb46"/><path d="M1006.295,345.387v-.775a1.293,1.293,0,1,0-2.587,0v4.349a1.294,1.294,0,1,0,2.587,0v-2.5h-1.183v.652h.519v1.848q0,.663-.631.663t-.628-.663v-4.349q0-.663.624-.663H1005q.628,0,.628.663v.775Z" transform="translate(-126.118 -237.351)" fill="#cbbb46"/><path d="M1042.483,346.516v-1.069q0-1.312-1.187-1.312l-1.313,0v6.747h.664v-3.087l.443-.058.929,3.145h.737l-1.128-3.236A1.141,1.141,0,0,0,1042.483,346.516Zm-.664,0a.61.61,0,0,1-.4.623,1.162,1.162,0,0,1-.359.04h-.417v-2.4h.544q.628,0,.628.667Z" transform="translate(-157.494 -238.071)" fill="#cbbb46"/><path d="M1074.071,344.132l-.7,4.443-.3,2.3h.668l.2-1.507h1.368l.2,1.507h.671l-.308-2.316-.7-4.432Zm-.054,4.588.6-4.182.6,4.182Z" transform="translate(-186.105 -238.071)" fill="#cbbb46"/><path d="M1113.912,345.447q0-1.312-1.186-1.312l-1.4,0v6.747h1.328l.073,0q1.186,0,1.186-1.308Zm-.664,4.12q0,.663-.628.663h-.631v-5.45h.631q.628,0,.628.667Z" transform="translate(-219.2 -238.071)" fill="#cbbb46"/><path d="M1149.919,349.68v-5.548h-.664v5.548q0,.663-.631.663t-.628-.663v-5.548h-.664v5.548a1.294,1.294,0,1,0,2.587,0Z" transform="translate(-250.345 -238.071)" fill="#cbbb46"/><path d="M1183.562,344.132h-1.1l-.7,4.443-.3,2.3h.668l.2-1.507h1.368l.2,1.507h.671l-.308-2.316Zm-1.15,4.588.6-4.182.6,4.182Z" transform="translate(-279.862 -238.071)" fill="#cbbb46"/><path d="M1220.475,343.3a1.151,1.151,0,0,0-1.292,1.312v4.349a1.294,1.294,0,1,0,2.587,0v-.775h-.664v.775q0,.663-.631.663t-.627-.663v-4.349q0-.663.624-.663h.007q.628,0,.627.663v.775h.664v-.775A1.152,1.152,0,0,0,1220.475,343.3Z" transform="translate(-312.492 -237.351)" fill="#cbbb46"/><rect width="0.664" height="6.747" transform="translate(911.573 106.061)" fill="#cbbb46"/><path d="M1280.083,348.96v-4.349a1.294,1.294,0,1,0-2.587,0v4.349a1.294,1.294,0,1,0,2.587,0Zm-1.923,0v-4.349q0-.663.624-.663h.007q.628,0,.628.663v4.349q0,.663-.631.663T1278.16,348.96Z" transform="translate(-362.929 -237.351)" fill="#cbbb46"/><path d="M1314.472,344.132h-.7v6.747h.624V345.5l1.262,5.381h.7v-6.744l-.588.011v5.486Z" transform="translate(-394.306 -238.07)" fill="#cbbb46"/><path d="M1352.885,344.78v-.649h-2.3v6.747h2.3v-.649h-1.636v-2.4h1.408v-.652h-1.408v-2.4Z" transform="translate(-426.147 -238.07)" fill="#cbbb46"/><path d="M1385.982,345.387v-.775a1.294,1.294,0,1,0-2.587,0v.667a1.833,1.833,0,0,0,.885,1.518q1.037.743,1.038,1.352v.812q0,.663-.628.663t-.631-.663v-.775h-.664v.775a1.294,1.294,0,1,0,2.587,0v-.9a1.814,1.814,0,0,0-.885-1.493q-1.037-.743-1.037-1.312v-.645q0-.663.624-.663h.007q.627,0,.628.663v.775Z" transform="translate(-454.526 -237.351)" fill="#cbbb46"/></g></svg>