<svg xmlns="http://www.w3.org/2000/svg" width="30" height="30" viewBox="0 0 30 30"><g transform="translate(0.499)"><path d="M15,0A15,15,0,1,1,0,15,15,15,0,0,1,15,0Z" transform="translate(-0.499)" fill="#cbbb46"/><path d="M12.732-4.658A1.629,1.629,0,0,0,11.586-5.8,38.052,38.052,0,0,0,6.5-6.082a39.534,39.534,0,0,0-5.086.268A1.662,1.662,0,0,0,.268-4.658,17.161,17.161,0,0,0,0-1.531,17.1,17.1,0,0,0,.268,1.6,1.629,1.629,0,0,0,1.414,2.742,38.121,38.121,0,0,0,6.5,3.02a39.534,39.534,0,0,0,5.086-.268,1.629,1.629,0,0,0,1.146-1.146A17.166,17.166,0,0,0,13-1.52,16.29,16.29,0,0,0,12.732-4.658ZM5.2.418v-3.9L8.588-1.531Zm0,0" transform="translate(8.167 16.531)" fill="#fff"/></g></svg>